<?xml version="1.0" encoding="UTF-8"?>
<svg id="Layer_1" xmlns="http://www.w3.org/2000/svg" version="1.1" viewBox="0 0 115.53 125.1">
  <!-- Generator: Adobe Illustrator 30.3.0, SVG Export Plug-In . SVG Version: 2.1.3 Build 182)  -->
  <defs>
    <style>
      .st0 {
        fill: #febe10;
      }
    </style>
  </defs>
  <circle class="st0" cx="66.35" cy="23.9" r="6.84"/>
  <rect class="st0" x="58.51" y="7.52" width="15.78" height=".75" transform="translate(54.02 73.61) rotate(-86.12)"/>
  <rect class="st0" x="36.55" y="37.67" width="26.94" height=".75" transform="translate(-12.8 39.69) rotate(-38.75)"/>
  <rect class="st0" x="72.57" y="15.28" width="21.12" height=".75" transform="translate(2.28 40.53) rotate(-27.77)"/>
  <rect class="st0" x="48.48" y=".25" width=".75" height="25.13" transform="translate(11.4 46.69) rotate(-56.82)"/>
  <rect class="st0" x="73.9" y="28.85" width=".75" height="6.51" transform="translate(-1.76 59.8) rotate(-43.39)"/>
  <rect class="st0" x="75.05" y="30.27" width=".75" height="32.17" transform="translate(-11.52 29.64) rotate(-20.69)"/>
  <rect class="st0" x="65.74" y="11.02" width="10.3" height=".75" transform="translate(35.63 73.95) rotate(-69.72)"/>
  <rect class="st0" x="74.48" y="24.09" width="14.92" height=".75"/>
  <polygon class="st0" points="96.2 39.83 73.42 27.97 73.77 27.31 96.54 39.17 96.2 39.83"/>
  <rect class="st0" x="22.91" y="34.69" width="37.71" height=".75" transform="translate(-10.69 20.16) rotate(-24.16)"/>
  <rect class="st0" x="55.68" y="17.74" width=".75" height="5.42" transform="translate(20.77 68.56) rotate(-73.78)"/>
</svg>