<?xml version="1.0" encoding="UTF-8"?>
<svg id="Layer_1" xmlns="http://www.w3.org/2000/svg" version="1.1" viewBox="0 0 115.53 125.1">
  <!-- Generator: Adobe Illustrator 30.3.0, SVG Export Plug-In . SVG Version: 2.1.3 Build 182)  -->
  <defs>
    <style>
      .st0 {
        fill: #003d63;
      }

      .st1 {
        fill: #231f20;
      }
    </style>
  </defs>
  <path class="st1" d="M60.56,87.95v-25.56c0-1.14.54-1.81,1.61-1.81,1,0,1.61.67,1.61,1.81v25.77c1.44.26,2.55.75,3.42,1.42v-26.25c0-4.69-1.47-5.7-3.75-5.7s-2.88,1.41-2.88,1.41v-1.21h-3.48v30.12h3.48Z"/>
  <polygon class="st1" points="93.57 62.29 93.57 68.95 97.05 68.95 97.05 62.29 100.27 62.29 100.27 68.95 103.68 68.95 103.68 68.95 103.68 24.83 100.27 24.83 100.27 59.07 97.05 59.07 97.05 24.83 93.57 24.83 93.57 59.07 91.29 59.07 93.57 62.29"/>
  <path class="st1" d="M106.29,72.67c0,3.54.56,6.15,4.88,6.28h.76c1.02-.03,2.2-.17,3.61-.45v-3.35c-5.09,1.14-5.76,0-5.76-2.14v-5.71h5.09v-3.22h-5.09v-22.62c0-2.14.67-3.28,5.76-2.14v-3.35c-8.38-1.67-9.25,1.34-9.25,5.83v30.88Z"/>
  <polygon class="st1" points="83.99 57.56 87.4 57.56 87.4 22.11 90.28 22.11 90.28 18.83 81.57 18.83 80.23 22.11 83.99 22.11 83.99 57.56"/>
  <path class="st1" d="M12.72,83.4c1.54.07,2.22-.14,3.48.74v-21.85h3.22v26.72c.94-.71,2.08-1.18,3.42-1.39v-27.74h-2.08c1.54-1.21,2.08-2.81,2.08-7.04v-20.98c0-5.36-1.34-7.04-5.83-7.04h-4.29v58.57ZM16.21,28.11h.94c1.88,0,2.28.4,2.28,2.14v23.39c0,3.69-.67,5.43-2.41,5.43h-.8v-30.96Z"/>
  <path class="st1" d="M52.71,93.08v-35.25h-3.42v33.8c1.33.22,2.48.72,3.42,1.45Z"/>
  <path class="st1" d="M0,82.95s0,0,0,0c0,0,1.52,0,3.48,0v-15.66h3.22v15.66c1.25,0,2.46,0,3.42,0v-41.9c0-4.49-2.61-5.43-5.09-5.43-2.61,0-5.03,1.14-5.03,5.43v41.89ZM3.48,40.52c0-1.47.54-1.94,1.61-1.94,1,0,1.61.4,1.61,1.94v23.55h-3.22v-23.55Z"/>
  <polygon class="st1" points="27.26 57.56 30.68 57.56 30.68 22.11 33.56 22.11 33.56 18.83 24.85 18.83 23.51 22.11 27.26 22.11 27.26 57.56"/>
  <g>
    <path class="st0" d="M16.75,124.58s-3.49-.07-3.42,0v-35.2c0-1.14-.54-1.81-1.61-1.81s-1.61.67-1.61,1.81v35.18h-3.42v-35.18c0-1.14-.6-1.81-1.61-1.81-1.07,0-1.61.67-1.61,1.81v35.18H0v-39.73h3.48v1.21c.07-.2.67-1.41,2.88-1.41,1.07,0,2.14.47,2.68,1.41.6-.94,1.88-1.41,3.01-1.41,2.48,0,4.76.94,4.76,5.36l-.07,34.59Z"/>
    <path class="st0" d="M24.44,125.1c-2.61,0-5.02-1.14-5.02-5.43v-24.89c0-4.29,2.41-5.43,5.02-5.43,2.41,0,5.09,1,5.09,5.43v24.89c0,4.42-2.68,5.43-5.09,5.43ZM22.9,119.94c0,1.47.54,1.94,1.61,1.94,1,0,1.54-.4,1.54-1.94v-25.42c0-1.54-.54-1.94-1.54-1.94-1.07,0-1.61.47-1.61,1.94v25.42Z"/>
    <path class="st0" d="M41.09,80.11h-2.88v44.45h-3.42v-44.45h-3.75l1.34-3.28h8.71v3.28Z"/>
    <path class="st0" d="M47.62,125.1c-2.61,0-5.03-1.14-5.03-5.43v-20.89c0-4.29,2.41-5.43,5.03-5.43,2.41,0,5.09,1,5.09,5.43v20.89c0,4.42-2.68,5.43-5.09,5.43ZM46.08,119.94c0,1.47.54,1.94,1.61,1.94,1,0,1.54-.4,1.54-1.94v-21.42c0-1.54-.54-1.94-1.54-1.94-1.07,0-1.61.47-1.61,1.94v21.42Z"/>
    <path class="st0" d="M57.07,106.07v-16.24h4.29c4.49,0,5.83,1.68,5.83,7.03v2.98c0,4.22-.54,5.83-2.08,7.04h2.08v17.69h-3.42v-15.28h-3.22v15.28h-3.48v-18.49ZM63.77,95.26c0-1.74-.4-2.14-2.28-2.14h-.94v12.96h.8c1.74,0,2.41-1.74,2.41-5.43v-5.39Z"/>
    <path class="st0" d="M78.16,86.79c0-4.49.87-7.5,9.25-5.83v3.35c-5.09-1.14-5.76,0-5.76,2.14v32.55c0,2.14.67,3.28,5.76,2.14v3.35c-8.38,1.68-9.25-1.34-9.25-5.83v-31.88Z"/>
    <path class="st0" d="M92.48,124.56h-3.42v-53.73h3.42v53.73Z"/>
    <path class="st0" d="M103.68,74.11h-2.88v50.45h-3.42v-50.45h-3.75l1.34-3.28h8.71v3.28Z"/>
    <path class="st0" d="M112.11,109.29h-6.7v-28.46h3.48v25.24h3.22v-25.24h3.42v37.84c0,4.49-1.21,7.44-10.18,5.83v-3.35c6.03,1.21,6.77,0,6.77-2.14v-9.71Z"/>
  </g>
  <path class="st1" d="M20.1,63.63l-1.35-2.68c22.02-11.12,58.21-11.11,79.01.02l-1.41,2.65c-19.72-10.54-55.34-10.53-76.25.02Z"/>
</svg>